<?xml version="1.0" encoding="utf-8"?>
<!-- Generator: Adobe Illustrator 26.4.1, SVG Export Plug-In . SVG Version: 6.00 Build 0)  -->
<svg version="1.1" id="Layer_1" xmlns="http://www.w3.org/2000/svg" xmlns:xlink="http://www.w3.org/1999/xlink" x="0px" y="0px"
	 viewBox="0 0 1150 930.4" style="enable-background:new 0 0 1150 930.4;" xml:space="preserve">
<style type="text/css">
	.st0{fill:#FFFFFF;}
</style>
<g>
	<path class="st0" d="M976.3,626.6C945.5,727.7,886.8,807.5,797.7,864c-71.5,45.4-150,66.8-234.6,64.3
		c-185-5.4-339.9-130.2-389.1-301.8c-1.7,0-3.5,0-5.3,0c-51.8,0-103.5,0-155.3,0c-1.6,0-3.1,0.1-4.7-0.1c-4.3-0.4-6.8-3.2-6.9-7.3
		c-0.1-4.5,2.3-7.4,6.8-7.9c1.4-0.2,2.8-0.1,4.2-0.1c375,0,749.9,0,1124.9,0c1.1,0,2.2,0,3.3,0c5,0.4,7.5,3,7.5,7.7
		s-2.6,7.4-7.5,7.7c-1.5,0.1-3.1,0-4.7,0c-51.5,0-102.9,0-154.4,0C979.9,626.6,978.1,626.6,976.3,626.6z M195.7,626.8
		C238,777.1,386.4,910,578.5,908.3c190.2-1.6,334.8-134.7,375.8-281.5C701.5,626.8,448.6,626.8,195.7,626.8z"/>
	<path class="st0" d="M976.2,396.9c2.4,0,4.4,0,6.4,0c51.3,0,102.6,0,153.9,0c1.9,0,3.7-0.1,5.6,0.2c4,0.5,6.2,3.2,6.2,7.4
		c0,4.2-2.1,7-6,7.6c-1.2,0.2-2.5,0.1-3.7,0.1c-8.2,0-16.5,0-24.7,0c-366.5,0-733.1,0-1099.6,0c-1.9,0-3.7,0.1-5.6-0.1
		c-4.2-0.4-6.8-3.2-6.9-7.3c-0.1-4.5,2.3-7.4,6.8-7.8c1.7-0.2,3.4-0.1,5.1-0.1c51.3,0,102.6,0,153.9,0c2,0,4,0,6.2,0
		c33-107.7,97.1-190.9,194.8-247.2C439.5,108.9,516.4,91,598,95.5c88.4,4.9,167.6,35.1,236.9,90.2
		C904.2,240.9,950.7,311.6,976.2,396.9z M954.4,396.6c-42.5-151-193.6-287.6-391.9-281.3c-197.8,6.3-331.1,149.5-366.6,281.3
		C448.6,396.6,701.3,396.6,954.4,396.6z"/>
	<path class="st0" d="M560.5,586.4c-11.5,0-22.5,0-34,0c-0.1-1.8-0.2-3.4-0.2-5.1c0-14,0-28,0-41.9c0-2.3-0.1-4.7-0.5-6.9
		c-1.1-5.6-4.1-8.3-9.8-9c-2-0.2-4,0-6.6,0c-0.4,5.3-0.1,10.5-0.2,15.7c0,5.3,0,10.6,0,15.8c0,5.1,0,10.3,0,15.4c0,5.2,0,10.5,0,16
		c-11.6,0-22.7,0-34.2,0c0-50.1,0-100,0-150.3c1.7-0.1,3.2-0.2,4.7-0.2c14.8,0,29.5-0.1,44.3,0c3.6,0,7.2,0.2,10.7,0.7
		c12.5,1.8,20.7,8.8,24,21c2.6,9.7,2.9,19.6,1.3,29.6c-1.6,9.9-6.3,17.4-16.1,21.1c-0.5,0.2-0.9,0.6-1.7,1.2c1.2,0.5,2,1,2.8,1.3
		c10.4,3.9,15.2,11.8,15.6,22.6c0.2,6.8,0.1,13.7,0.1,20.5c0,9.3,0,18.6,0,28C560.7,583.2,560.6,584.6,560.5,586.4z M509.6,495.1
		c2.8,0,5.5,0.2,8-0.1c3.7-0.4,6.4-2.6,7.4-6.2c1.8-6.1,1.7-12.3-0.1-18.3c-0.9-3.2-3.3-5.4-6.6-5.9c-2.8-0.4-5.7-0.1-8.8-0.1
		C509.6,474.8,509.6,484.8,509.6,495.1z"/>
	<path class="st0" d="M307,512.7c-0.3,10.6-0.4,21.1-1.1,31.6c-0.4,5.8-1.5,11.8-3.3,17.3c-5,15.6-16.1,24.3-32.2,26.6
		c-7,1-14,0.6-20.8-1.2c-11.3-2.9-19.2-9.7-24-20.3c-3.7-8.2-5.2-16.9-5.3-25.8c-0.2-18.5-0.2-37,0-55.4c0.1-8.2,0.9-16.4,3.5-24.3
		c5.1-15.5,15.6-24.5,32-26.6c7-0.9,13.9-0.7,20.8,0.9c11.7,2.8,19.8,9.9,24.7,20.7c4.1,9,5.1,18.5,5.2,28.2c0.2,9.5,0,18.9,0,28.4
		C306.8,512.7,306.9,512.7,307,512.7z M254.8,512.2L254.8,512.2c0,11.3,0,22.7,0,34c0,2,0.1,4,0.5,6c0.8,4.3,3.2,6.5,7.1,6.8
		c3.8,0.4,6.9-1.4,8.3-5.4c1-2.9,1.5-6.1,1.5-9.1c0.1-22.7,0.1-45.4,0-68c0-2.2-0.2-4.4-0.6-6.5c-0.9-4.3-3.5-6.5-7.2-6.7
		c-4.1-0.1-7.2,1.9-8.4,6c-0.7,2.7-1.1,5.5-1.1,8.3C254.7,489.2,254.8,500.7,254.8,512.2z"/>
	<path class="st0" d="M432.9,512.5c-0.3,10.6-0.3,21.1-1.1,31.6c-0.4,6-1.5,12.1-3.4,17.8c-5,15.6-16.3,24.1-32.3,26.4
		c-6.6,0.9-13.4,0.6-19.9-1c-11.4-2.8-19.7-9.6-24.5-20.3c-3.7-8.2-5.3-16.9-5.4-25.8c-0.2-18.8-0.2-37.6,0.1-56.4
		c0.1-7.7,0.9-15.5,3.3-23c5-15.9,15.6-25.2,32.4-27.3c6.9-0.9,13.6-0.7,20.3,0.9c11.9,2.8,20.1,9.9,25,21c4,9,5,18.5,5.2,28.2
		c0.2,9.3,0,18.6,0,28C432.7,512.5,432.8,512.5,432.9,512.5z M380.7,512.1L380.7,512.1c0,11.5,0,23,0,34.5c0,2,0.1,4,0.5,6
		c0.8,4.1,3.1,6.1,6.8,6.5c3.8,0.4,7-1.2,8.4-5.2c0.9-2.6,1.5-5.4,1.5-8.2c0.1-23.3,0-46.6,0-69.9c0-1.9-0.2-3.7-0.6-5.5
		c-0.9-4.3-3.4-6.6-7.1-6.8c-4.3-0.2-7.5,1.9-8.6,6.3c-0.7,2.7-1,5.5-1,8.3C380.6,489.4,380.7,500.7,380.7,512.1z"/>
	<path class="st0" d="M918.9,449.8c6.3,0,12,0,18.3,0c3.5,24.5,6.9,49,10.4,73.5c0.3,0,0.6-0.1,0.9-0.1c1.8-24.3,3.6-48.7,5.4-73.3
		c9.3,0,18.3,0,27.2,0c0.4,3.9-17,112-20.1,124.6c-3.8,0-7.8,0-11.8,0c-3.9,0-7.7,0-12.1,0c-2.8-23.5-5.6-46.8-8.3-70.1
		c-0.4,0-0.8,0-1.1,0c-2.7,23.1-5.3,46.3-8.1,70.1c-8,0.1-16,0-24.4,0c-7-41.6-13.9-82.8-20.9-124.1c3.5-1,20-1.3,28.1-0.4
		c1.9,24.4,3.7,48.9,5.6,73.5C912.4,499.2,915.2,474.6,918.9,449.8z"/>
	<path class="st0" d="M16,436.1c19.6,0,39,0,58.9,0c0.5,9.9,0.2,19.8,0.2,30.1c-8.5,0-16.5,0-24.4,0c-1,3.7-1.3,20.6-0.4,27.3
		c7.2,0.4,14.6-0.1,21.9,0.2c1.2,3.6,1.3,25.1,0.2,30.2c-7.3,0-14.6,0-22.6,0c0,21.1,0,41.7,0,62.5c-11.5,0-22.5,0-33.5,0
		C15.3,583.1,14.9,443.2,16,436.1z"/>
	<path class="st0" d="M751.1,436.1c0,10,0,19.8,0,30.1c-5.7,0-11.5,0-17.8,0c0,40.3,0,80,0,120c-11.7,0-23,0-34.7,0
		c0-39.8,0-79.4,0-119.7c-6.1,0-11.8,0-17.7,0c0-10.4,0-20.3,0-30.4C704.3,436.1,727.6,436.1,751.1,436.1z"/>
	<path class="st0" d="M154.4,436.2c0,39.9,0,79.6,0,119.6c8.4,0,16.3,0,24,0c1.1,3.6,1.4,24.7,0.4,30.5c-19.5,0-39,0-58.8,0
		c0-50,0-99.9,0-150.2C131.3,436.2,142.6,436.2,154.4,436.2z"/>
	<path class="st0" d="M1040.2,557c-5.3,0-10.4,0-15.8,0c-0.5,5.2-1.1,10.2-1.6,15.5c-9.3,0-18.4,0-27.9,0
		c8.2-41.1,16.4-81.8,24.5-122.7c8.9,0,17.6,0,26.7,0c7.8,40.7,15.6,81.5,23.5,122.6c-9.3,0-18.2,0-27.7,0
		C1041.4,567.5,1040.8,562.3,1040.2,557z M1026,538.7c2,0,3.6,0,5.1,0c2.3,0,4.6,0,7.5,0c-1.8-21.2-3.6-41.9-5.4-62.6
		c-0.4,0-0.7,0-1.1,0C1030.1,496.8,1028.1,517.5,1026,538.7z"/>
	<path class="st0" d="M641.6,586.4c-11.5,0-22.5,0-33.8,0c0-50.1,0-100,0-150.2c11.3,0,22.4,0,33.8,0
		C641.6,486.2,641.6,536.1,641.6,586.4z"/>
	<path class="st0" d="M862.9,586.4c-3.9,0-7.3,0.1-10.6-0.1c-0.9,0-2.1-0.7-2.7-1.4c-13-15.6-24.5-32.1-29.6-52.2
		c-4.8-18.8-3.2-37.2,4.2-55.2c6-14.7,15.3-27.3,25.4-39.3c0.8-0.9,2.3-1.6,3.5-1.7c3.1-0.2,6.2-0.1,10.1-0.1
		c-0.9,1.9-1.5,3.4-2.3,4.8c-7.6,13.8-12.9,28.5-15.8,44.1c-5.6,29.8-2,58.4,10.7,85.9c1.9,4.1,4,8.1,5.9,12.1
		C862.1,584.1,862.3,585,862.9,586.4z"/>
	<path class="st0" d="M1088.6,586.4c12.8-24,20.9-48.3,21-74.9s-7.5-51.1-20.4-74.8c4.2-0.6,7.9-0.4,11.5-0.2c0.8,0,1.7,0.7,2.2,1.4
		c11.4,14.2,22,29,27.6,46.7c7,22.5,5.2,44.5-4.8,65.7c-5.9,12.6-14.4,23.5-23.1,34.3c-1.1,1.3-2.3,1.9-4,1.9
		C1095.7,586.3,1092.7,586.4,1088.6,586.4z"/>
	<path class="st0" d="M1000.2,266.9c-7.2-2.3-14.4-4.6-21.9-6.9c-4.6,6.2-9.2,12.2-13.7,18.2c-0.3-0.1-0.5-0.1-0.8-0.2
		c0-7.5,0-15,0-22.8c-7.6-2.6-14.8-5.2-22-7.7c0-0.3,0-0.6,0-0.9c7.2-2.4,14.4-4.8,22.1-7.4c0-7.6,0-15.2,0-22.7
		c0.4-0.1,0.7-0.3,1.1-0.4c4.4,6,8.9,12.1,13.6,18.4c7.4-2.2,14.8-4.4,22.1-6.7c0.2,0.2,0.4,0.4,0.6,0.6
		c-4.5,6.2-8.9,12.4-13.5,18.8c4.5,6.4,8.8,12.6,13.1,18.8C1000.6,266.5,1000.4,266.7,1000.2,266.9z"/>
	<path class="st0" d="M325.4,94c-1.3-7.7-2.5-15.1-3.7-22.5c0.3-0.2,0.6-0.3,0.8-0.5c5.5,5.1,11,10.3,16.7,15.6
		c6.9-3.6,13.6-7.1,21.3-11c-3.1,8-6.8,14.6-9.9,22c5.4,5.3,10.7,10.5,16.1,15.8c-0.2,0.3-0.3,0.6-0.5,1c-7.3-0.8-14.6-1.7-22.5-2.6
		c-3.4,6.8-6.8,13.6-10.2,20.4c-0.3-0.1-0.6-0.1-1-0.2c-1.4-7.4-2.9-14.7-4.4-22.4c-7.6-1.1-15-2.3-22.4-3.4
		c-0.1-0.3-0.2-0.6-0.3-0.9c3.3-1.8,6.5-3.7,9.8-5.5C318.6,97.9,321.9,96,325.4,94z"/>
	<path class="st0" d="M829.6,71.6c-1.2,7.3-2.4,14.6-3.7,22.4c6.6,3.7,13.3,7.4,19.9,11.1c-0.1,0.3-0.2,0.6-0.2,0.9
		c-7.4,1.1-14.8,2.3-22.5,3.4c-1.5,7.5-2.9,14.9-4.6,23.3c-4.4-7.1-7-14.2-11.1-21.1c-7.3,0.8-14.8,1.7-23,2.6c2.3-3.9,5.5-6,8-8.8
		c2.5-2.7,5.2-5.3,8.1-8.4c-3.1-6.7-6.3-13.6-9.6-20.6c0.2-0.2,0.4-0.4,0.6-0.6c6.7,3.5,13.3,6.9,20.4,10.6
		c5.6-5.2,11.2-10.3,16.8-15.5C829.1,71.3,829.4,71.5,829.6,71.6z"/>
	<path class="st0" d="M163.7,247.4c-4.5-6.3-8.9-12.4-13.4-18.6c0.1-0.3,0.3-0.5,0.4-0.8c7.3,2.2,14.6,4.3,22.1,6.6
		c4.6-6.2,9.1-12.3,13.5-18.4c0.3,0.1,0.6,0.1,0.9,0.2c0.1,7.6,0.3,15.2,0.5,23c7.4,2.5,14.6,4.9,22.7,7.6
		c-7.8,3.5-15.3,5.2-22.7,8.3c0,7.5,0,15,0,22.6c-0.3,0.1-0.6,0.3-0.9,0.4c-4.5-6-9-11.9-13.8-18.2c-7.3,2.3-14.7,4.6-22,6.9
		c-0.2-0.2-0.3-0.4-0.5-0.6C154.9,260.1,159.2,253.8,163.7,247.4z"/>
	<path class="st0" d="M575,1.8c2.8,8.3,5.2,15.4,7.8,23.1c7.6,0,15.1,0,22.6,0c0.1,0.4,0.3,0.8,0.4,1.2c-6,4.5-12,9-18.2,13.6
		c2.3,7.3,4.5,14.5,6.7,21.7c-7.1-3.4-12.9-8.2-19.5-12.5c-6.3,4.5-12.5,8.8-18.6,13.2c-0.2-0.2-0.5-0.3-0.7-0.5
		c1.1-3.6,2.2-7.2,3.3-10.8s2.2-7.1,3.5-11.2c-6-4.5-12.1-8.9-18.7-13.9c4.4-1.3,8.2-0.6,11.9-0.8c3.7-0.2,7.4,0,11.5,0
		C569.6,17.4,572.1,10.1,575,1.8z"/>
	<path class="st0" d="M356.2,740.2c6.6,0,13.3-0.1,19.9,0.1c1.5,0.1,3.1,1.4,4.3,2.4c24.2,20.4,50.9,36.6,80.2,48.5
		c27.8,11.3,56.6,18.6,86.6,21.1c81.7,6.8,154.6-15.4,218.5-66.5c5.3-4.2,10.2-6.4,16.8-5.7c3.8,0.4,7.7,0.1,11.8,0.1
		c-9.4,15.1-63.4,50.8-98.6,65.1c-63.3,25.7-128.3,30.8-194.7,15c-55.4-13.2-103.7-39.8-145.1-78.9C356,741,356.1,740.6,356.2,740.2
		z"/>
	<path class="st0" d="M434.5,697c1.4-13.1,2.7-26.2,4.1-39.5c2.3,0,4.3,0,6.4,0c0.2,0.9,0.5,1.8,0.5,2.7c0,13.4,0,26.7,0,40.1
		c0,3.2-0.1,3.2-3.4,3.2c0-13.5,0-26.9,0-40.4c-0.3,0-0.6,0-0.9-0.1c-1.5,13.5-3,27-4.5,40.7c-2,0-3.6,0-5.6,0
		c-1.4-12.6-2.8-25-4.2-37.4c-0.3,0-0.6,0-0.9,0c0,2,0,4,0,6c0,9.5,0,18.9,0,28.4c0,2.1-0.3,3.8-3.3,2.8c0-15.3,0-30.5,0-46
		c1.3-0.1,2.4-0.2,3.4-0.2c0.9,0,1.8,0.1,3.2,0.2c1.4,13.2,2.9,26.4,4.3,39.5C434,697.1,434.3,697.1,434.5,697z"/>
	<path class="st0" d="M659.4,680.8c0,5.6,0.2,11.2-0.1,16.8c-0.3,5.7-3.7,8-9.2,7c-2.6-0.5-4.3-1.8-4.8-4.4
		c-0.3-1.7-0.6-3.4-0.6-5.1c-0.1-9.6,0-19.3,0-28.9c0-1.1,0-2.2,0.2-3.3c0.7-4.7,2.9-6.5,7.5-6.4c4.3,0.1,6.6,2,6.9,6.5
		C659.6,669,659.3,674.9,659.4,680.8L659.4,680.8z M649.1,680.6L649.1,680.6c0,5,0,9.9,0,14.9c0,1.1-0.2,2.3,0.3,3.2
		c0.5,1,1.6,2.1,2.6,2.2c0.9,0,2.1-1.1,2.7-2c0.5-0.8,0.4-2.1,0.4-3.2c0-10.1,0-20.2,0-30.3c0-0.5,0-0.9-0.1-1.4
		c-0.3-2.9-1.2-3.9-3.1-3.8c-2.3,0.1-2.7,1.8-2.8,3.6c-0.1,1.1-0.1,2.2-0.1,3.3C649.1,671.6,649.1,676.1,649.1,680.6z"/>
	<path class="st0" d="M741.1,657.5c1.1,0,2,0,3.1,0c0,15.4,0,30.7,0,46.2c-1.8,0-3.3,0-5.3,0c-2-12.6-3.9-25.1-5.9-37.6
		c-0.2,0-0.5,0-0.7,0c0,1.5,0,3,0,4.6c0.2,9.9,0.3,19.9,0.5,29.8c0,2,0.1,4-3.6,3.1c-0.1-15.1,0-30.4,0-46c1.2-0.1,2.1-0.2,3-0.2
		c0.7,0,1.5,0.2,2.5,0.3c2,12.5,3.9,24.8,5.9,37.1c0.2,0,0.3-0.1,0.5-0.1C741.1,682.5,741.1,670.3,741.1,657.5z"/>
	<path class="st0" d="M462.9,657.4c3.3,0,6.2-0.2,9.1,0.1c3.3,0.3,4.6,1.7,4.8,5.1c0.2,3.9,0.2,7.8,0,11.6c-0.1,1.7-1,3.3-1.8,5.6
		c2,1.1,2.4,3.7,2.3,6.5c0,3.7,0.1,7.5,0,11.2c-0.2,4.4-1.6,5.9-5.9,6.3c-2.7,0.2-5.5,0-8.5,0C462.9,688.3,462.9,673.2,462.9,657.4z
		 M466.9,700.1c5.2,0.1,5.9-0.4,6-4.6c0.1-3.1,0.1-6.2,0-9.3c-0.1-4.5-1.1-5.1-6-4.3C466.9,687.9,466.9,693.9,466.9,700.1z
		 M466.7,661.2c0,5.6-0.3,10.9,0.2,16.2c4.9,0,5.5-0.4,5.8-3.9c0.2-2.8,0.2-5.6,0-8.4C472.4,661.5,471.8,661.1,466.7,661.2z"/>
	<path class="st0" d="M627.9,680.4c0,5.6,0.2,11.2,0,16.8c-0.2,6.1-3.9,8.6-9.7,7.2c-2.2-0.5-3.7-1.8-4.2-3.9c-0.5-1.9-0.7-4-0.7-6
		c-0.1-9.2-0.1-18.3,0-27.5c0-1.5,0.1-3.1,0.4-4.6c0.8-4.2,2.6-5.7,6.6-5.8c5-0.2,7.5,1.9,7.7,7.1
		C628,669.2,627.8,674.8,627.9,680.4C627.8,680.4,627.8,680.4,627.9,680.4z M617.5,680.7L617.5,680.7c0,4.9,0,9.9,0,14.8
		c0,1.2-0.1,2.6,0.5,3.6c0.5,0.9,1.8,1.7,2.8,1.8c0.7,0,1.8-1.1,2.2-1.9c0.5-0.9,0.5-2.1,0.5-3.2c0-10.1,0-20.1,0-30.2
		c0-1.1,0-2.3-0.5-3.2s-1.5-1.9-2.5-2.2c-1.6-0.4-2.6,0.8-2.9,2.3c-0.2,1.2-0.2,2.5-0.3,3.7C617.5,671.1,617.5,675.9,617.5,680.7z"
		/>
	<path class="st0" d="M680.5,681.9c0,7.1,0,14.3,0,21.7c-1.6,0-2.6,0-3.8,0c0-15.3,0-30.4,0-45.8c3.4-1,7-0.7,10.4-0.1
		c2,0.3,3.3,1.8,3.4,3.9c0.1,4.6,0.2,9.3,0,13.9c-0.1,1.3-1.2,2.6-2,4.2c2.1,1.2,2.7,3.5,2.7,6.1c-0.1,5.9,0,11.7,0,17.8
		c-1.6,0-2.7,0-3.9,0c-0.2-0.6-0.5-1-0.5-1.4c0-5.4,0-10.9-0.1-16.3C686.5,681.8,685.5,681.2,680.5,681.9z M680.7,677.3
		c5,0,5.5-0.5,5.7-4.4c0.1-2.5,0.1-5,0-7.4c-0.2-4.2-1.1-4.8-5.7-4.1C680.7,666.6,680.7,671.8,680.7,677.3z"/>
	<path class="st0" d="M521.5,703.9c0-15.8,0-30.9,0-46.4c3.1,0,6-0.2,8.9,0c3.3,0.3,4.8,1.8,5,5c0.2,4,0.3,8.1,0,12.1
		c-0.1,1.7-1.3,3.3-1.9,4.9c0.6,1.1,2,2.5,2.1,4c0.2,6.6,0.1,13.3,0.1,20.2c-1.4,0-2.4,0-3.6,0c-0.1-0.5-0.4-1.1-0.5-1.7
		c-0.1-5.3,0-10.6-0.1-15.8c-0.1-4.1-1-4.7-6.1-4.4c0,7.1,0,14.4,0,21.9C523.9,703.7,522.9,703.8,521.5,703.9z M525.6,677.3
		c4.8,0.1,5.3-0.2,5.5-4.2c0.1-2.6,0.1-5.3,0-7.9c-0.2-4-0.9-4.4-5.5-3.8C525.6,666.7,525.6,672,525.6,677.3z"/>
	<path class="st0" d="M776.2,681c0,7.4,0,14.5,0,22.1c-1.5,0.4-3,1-4.7,1.3c-6.6,1.1-9.8-1.1-10-7.6c-0.3-10.9-0.2-21.8,0-32.6
		c0.1-5,2.1-7.1,5.9-7.6c5.7-0.7,8.4,1.5,8.9,7.4c0.1,1.5,0,3.1,0,5c-1.3,0.1-2.5,0.1-3.8,0.2c-0.2-2.2-0.2-4-0.5-5.8
		c-0.3-1.6-0.9-3-2.9-3.1c-2.2,0-2.9,1.4-3.2,3.3c-0.1,0.6-0.1,1.2-0.1,1.9c0,10.3-0.1,20.5,0,30.8c0,4.5,1.2,5.3,6,4.4
		c0-5,0-10,0-15.6c-0.7-0.9-4.9-0.1-2.6-3.8C771.3,681,773.4,681,776.2,681z"/>
	<path class="st0" d="M353.1,671.2c5.3,0.3,9.2,4.5,9,9.8c-0.2,5.1-4.7,9.2-9.8,9c-5.1-0.2-9.2-4.8-9-9.9
		C343.5,675,347.9,671,353.1,671.2z"/>
	<path class="st0" d="M796.9,671.2c5.2-0.1,9.7,4.1,9.7,9.2c0.1,5.1-4.2,9.5-9.4,9.6c-5.1,0.1-9.6-4.2-9.7-9.3
		C787.4,675.7,791.7,671.3,796.9,671.2z"/>
	<path class="st0" d="M494.5,657.5c3.7,0,7,0,10.4,0c0.4,3.3,0.4,3.3-6.5,3.9c-0.2,5.1-0.1,10.3-0.1,15.9c2.1,0.2,4,0.5,6.3,0.7
		c0.1,0.9,0.1,1.9,0.2,3.1c-2.2,0.2-4.1,0.4-6.3,0.7c0,6,0,11.8,0,18c2.2,0.2,4.3,0.4,6.7,0.6c0.1,1,0.2,2,0.3,3.3
		c-3.7,0-7.2,0-11,0C494.5,688.3,494.5,673.2,494.5,657.5z"/>
	<path class="st0" d="M382.4,703.7c-1.7,0-2.8,0-4.3,0c0-14.1,0-28,0-42.2c-1.6-0.3-2.9-0.6-4.6-0.9c0-1-0.1-1.9-0.1-3.2
		c4.6,0,8.9,0,13.4,0c0,1.1,0,2,0,3.1c-1.3,0.3-2.6,0.5-4.4,0.9C382.4,675.3,382.4,689.3,382.4,703.7z"/>
	<path class="st0" d="M562.9,657.6c3.6,0,7,0,10.5,0c0,1.2,0,2,0,3.2c-2.1,0.2-4.1,0.4-6.3,0.6c0,5.4,0,10.7,0,16.2
		c2.1,0.2,3.9,0.4,6,0.6c-0.1,1.2-0.1,2.1-0.2,3.3c-2,0.1-3.6,0.2-5.8,0.3c-0.8,7.2,0.1,14.5-0.5,21.9c-1.3,0-2.3,0-3.6,0
		C562.9,688.4,562.9,673.2,562.9,657.6z"/>
	<path class="st0" d="M401.3,657.5c1.3,0,2.4,0,3.8,0c0,15.4,0,30.6,0,46.2c-1.3,0-2.4,0-3.8,0C401.3,688.3,401.3,673.2,401.3,657.5
		z"/>
	<path class="st0" d="M712.3,703.7c-1.8,0-2.9,0-4.1,0c0-15.4,0-30.5,0-46c1.1-0.1,2.3-0.2,4.1-0.4
		C712.3,672.9,712.3,688.1,712.3,703.7z"/>
	<path class="st0" d="M592.2,699.9c2.8,0.2,4.9,0.4,7.2,0.6c0,1.1,0,2,0,3.2c-3.5,0-7,0-10.8,0c0-15.4,0-30.6,0-46
		c1.2,0,2.2,0,3.6,0C592.2,671.6,592.2,685.5,592.2,699.9z"/>
	<path class="st0" d="M301.4,383.3c-5.5,0-10.7,0-16,0c35.5-87.2,135.3-184.9,281.4-188.8c143.9-3.9,255.4,87.1,298.3,189
		c-5.1,0-10,0.1-14.9-0.1c-0.8,0-1.8-1-2.3-1.8c-1-1.6-1.7-3.3-2.5-5C800.7,291.4,731.8,237,637.8,216.5
		C502.2,187,364.5,254.6,303.5,379.3C302.8,380.6,302.1,382,301.4,383.3z"/>
	<path class="st0" d="M462.9,292.2c-1.4-0.2-2.8-0.4-4.2-0.6c-5.4-0.9-10.8-1.1-16.2,0.5c-3.6,1-6.9,2.8-9.3,5.9
		c-3.7,4.8-2.9,10.4,2.1,13.8c4,2.7,8.5,3.5,13,3.6c7.1-16.4,20.7-21.9,36.9-23.2c0.8-0.1,1.6,0,2.3,0.1c5.8,0.7,7.9,4.9,4.4,9.5
		c-2.4,3.1-5.6,5.8-9,7.9c-7,4.5-15,6.6-23.2,7.7c-2.2,0.3-4.5,0.3-7.2,1.6c3.1,2.3,7,0.3,8.9,3.6c-1.5,2.3-3.9,2.1-5.7,1.3
		c-3.3-1.3-6-0.3-8.9,0.8c-7.9,3-14.7,7.6-19.5,14.5c-1.8,2.6-3.1,5.7-4,8.8c-1,3.5,0.1,6.1,3.3,7.8c2.1,1.1,4.6,2.1,7,2.3
		c9.3,0.8,17.9-1.5,25.4-7.1c2-1.5,3.8-3.3,5.1-5.3c3.6-5.5,1.1-10.5-5.5-10.5c-3.5,0-7.1,1-10.3,2.2c-5.4,2-9.4,5.9-13.3,10
		c-1,1.1-2.1,2.1-3.4,3.4c-0.3-0.9-0.7-1.4-0.6-1.6c6.1-9,13.9-15.5,25.2-16.3c2-0.2,4.1,0,6,0.5c4.9,1.3,7.4,5.8,5.3,10.5
		c-1.2,2.8-3.1,5.5-5.3,7.5c-9.1,7.8-19.9,10.7-31.7,8.7c-8.1-1.4-12.2-7.4-11.2-15.5c0.6-5,2.9-9.1,6.4-12.6
		c5.2-5.2,11.7-8.1,18.7-9.9c1.8-0.5,3.6-0.9,5.3-1.3c0.2-2.7-1.6-2.7-3.3-3c-3.2-0.6-6.5-1-9.5-2.2c-10.8-4.4-12.2-15.8-2.9-22.8
		c6.8-5,14.5-5,22.3-3.7c2.3,0.4,4.8,0.6,6.6,2.3C463.1,291.5,463,291.9,462.9,292.2z M453.5,315.7c4-0.5,7.2-0.7,10.3-1.3
		c8.5-1.6,16.4-4.5,23-10.4c1.4-1.2,2.7-2.7,3.6-4.2c1.6-2.8,0.5-4.9-2.7-5.2c-2-0.2-4.1-0.1-6,0.4c-10.6,2.6-19.4,8.1-26,16.8
		C454.9,312.7,454.5,313.8,453.5,315.7z"/>
	<path class="st0" d="M599.6,321.5c-1.9,5.7-5.1,10.3-10.9,12.7c-5,2.1-8.4-0.7-7.4-6.1c0.3-1.5,0.8-3,1.6-4.3
		c4.8-8,11.8-12.7,21.1-13.6c6.5-0.7,9.9,3.3,8.9,9.8c-0.6,3.8-2.5,7-5.1,9.8c-4.3,4.8-9.8,8-15.6,10.7c-6,2.8-12,5.8-18,8.8
		c-1.3,0.7-2.4,1.7-3.5,2.4c4.2,1.3,8.1,2.4,11.9,3.8c4.1,1.5,7.2,0.3,10.1-2.6c1.1-1.1,1.6-3,3.7-3.1c-2.1,7.4-9.4,11.9-16.3,9.9
		c-2.1-0.6-4.1-1.4-6.1-2.2c-4-1.6-7.8-1.7-11.7,0.3c-0.9,0.4-1.9,0.5-2.8,0.8c-0.2-0.3-0.4-0.5-0.5-0.8c0.8-0.8,1.4-1.8,2.3-2.3
		c6.2-4.1,12.5-8.1,18.8-12.1c4.1-2.5,8.3-4.8,12.5-7.3c5.7-3.4,10.7-7.5,14.3-13.1c1.1-1.8,2-3.9,2.6-5.9c0.7-2.6-0.6-4.2-3.3-4.5
		c-1.7-0.2-3.5-0.1-5.1,0.4c-7.3,2.3-12.7,7-16.6,13.5c-0.5,0.8-0.8,1.7-1.1,2.6c-0.7,2.7,0.8,4.3,3.5,3.6c3.2-0.8,5.5-2.9,7.4-5.4
		c1.6-2,2.9-4.2,4.3-6.4C599,321,599.3,321.3,599.6,321.5z"/>
	<path class="st0" d="M698.3,343.9c5.9,0.3,11,0.7,16.1,0.7c1.2,0,2.5-0.9,3.4-1.8c2.8-2.7,5.4-5.6,8.1-8.4c0.9-0.9,2-1.6,3.4-2.1
		c-1.8,4.8-6,8-8.6,12.7c2.6,0.1,4.7,0.3,7.7,0.4c-2.2,2.2-4.3,2.3-6.1,2.2c-2.9-0.2-4.6,1.1-6,3.4c-1.7,2.8-3.7,5.3-5.7,8
		c-2.2,0-4.4,0-7.4,0c3.5-4.1,6.5-7.6,9.9-11.7c-1.6-0.4-2.8-0.9-4.1-1c-5.1-0.4-10.2-0.2-15.2,1.6c-1.1,0.4-2.3,1.4-3.3-0.8
		c0.9-0.8,1.9-1.7,2.9-2.5c11.8-10.1,23.7-20,35.3-30.4c3.2-2.9,6.2-4.4,10.9-3.2c-6.5,6.1-12.9,11.9-19.7,17.1
		C712.9,333.3,705.8,338.4,698.3,343.9z"/>
	<path class="st0" d="M608.2,350c0.8-2.2,1.8-6.7,3.9-10.5c7-12.6,17.2-21.8,30.4-27.6c2-0.9,4.1-1.4,6.2-1.8c4.8-0.7,7.8,1.9,7,6.6
		c-0.7,4-1.9,8.2-3.9,11.8c-6.3,11-15.2,19.9-25.4,27.4c-2.7,1.9-6.1,3.2-9.3,4C611.1,361.3,607.9,358.4,608.2,350z M653.8,316.9
		c0-2.9-1.3-4.4-4-4.4c-1.4,0-2.8,0.2-4,0.8c-2.9,1.4-6,2.8-8.4,4.8c-8.9,7.5-16.7,16.2-23,26.1c-1.6,2.6-2.7,5.6-3.3,8.6
		c-1,4.2,1.3,6.4,5.5,5.2c3.1-0.9,6.1-2.4,8.7-4.2c8.8-6.3,16.4-13.8,22.4-22.8c2.4-3.6,3.7-7.8,5.5-11.7
		C653.6,318.4,653.7,317.5,653.8,316.9z"/>
	<path class="st0" d="M539,312c-2.2,3-4,5.6-6.3,8.8c3.3,0.2,6.1,0.4,9.5,0.6c-0.8,1-1.2,1.8-1.7,2c-0.8,0.3-1.9,0.4-2.8,0.2
		c-5.5-1.1-8.8,1.5-11.7,5.9c-5,7.5-10.7,14.5-16,21.8c-1.3,1.7-2.2,3.6-3.2,5.2c1.2,2.2,2.5,1.6,3.9,1.2c5-1.7,8.8-5.2,12.5-8.7
		c1.2-1.1,2.4-2.2,4.2-3.8c0,1.5,0.2,2,0,2.2c-4.2,4.7-8.7,8.9-14.3,11.7c-2.5,1.2-5.3,2.6-7.8,0.3c-2.4-2.2-1.5-5-0.4-7.4
		c1.5-3.2,3.2-6.4,5.2-9.3c3.4-5,7.1-9.8,10.7-14.7c0.9-1.2,1.7-2.5,2.8-4.1c-2.3-0.2-4.2-0.3-6-0.4c0.1-2.4,1.7-2.6,3.2-2.3
		c4.2,0.8,6.7-1.3,8.6-4.6c0.3-0.5,0.8-1,1.1-1.5C532.1,311.6,534.8,310.6,539,312z"/>
	<path class="st0" d="M663.7,359.1c-2.2,0-4.2,0-7.1,0c3.7-5.1,7.3-9.3,10.9-13.7c3.7-4.6,7.5-9.1,11.3-13.6
		c3.6-4.3,7.2-8.6,10.5-13.4c-10.9,6.7-21.7,13.5-32.7,19.8c-0.2-0.3-0.5-0.5-0.7-0.8c0.3-0.7,0.5-1.6,1.1-2
		c2.3-1.5,4.8-2.8,7.2-4.3c10.5-6.8,21.1-13.7,31.6-20.6c0.8-0.5,1.8-0.9,2.6-1.3c0.2,0.2,0.4,0.5,0.6,0.7
		C687.2,326.2,675.5,342.5,663.7,359.1z"/>
	<path class="st0" d="M501.9,319c0.7,2.8-0.8,4.5-2.4,5.9c-1.8,1.5-1.9,3.1-1.9,5.3c0.1,4.3,0.2,8.7-0.6,12.9
		c-1.8,9.9-10.3,17.1-19.4,16.9c-1.5,0-3.1-0.4-4.4-1.1c-2.6-1.6-2.7-5.2-0.3-7.1c1.3-1.1,2.8-1.5,4.2-0.3c1.4,1.2,1.3,2.7,0.2,4.1
		c-0.5,0.6-1,1-2.2,2.1c1.7,0.1,2.8,0.5,3.6,0.1c2.2-1.1,4.5-2.2,6.3-3.8c6.1-5.5,10.3-16.1,10.1-25.3c-5.6,4.5-10.3,9.6-15.9,13.4
		c-0.3-0.3-0.5-0.5-0.8-0.8c0.5-0.8,0.9-1.7,1.5-2.3c3.6-3.2,7.2-6.4,10.8-9.6c2.5-2.3,5.1-4.5,6.6-7.7
		C498,320.2,499.2,318.4,501.9,319z"/>
</g>
</svg>
